<svg width="243" height="448" viewBox="0 0 243 448" fill="none" xmlns="http://www.w3.org/2000/svg">
    <path
        d="M67.4619 218.818H59.6068V229H61.1381V220.131H65.9307V229H67.4619V218.818ZM72.9829 229.154C74.6483 229.154 75.8266 228.334 76.1647 227.091L74.7577 226.837C74.4893 227.558 73.843 227.926 72.9978 227.926C71.7251 227.926 70.8699 227.101 70.8302 225.629H76.2591V225.102C76.2591 222.343 74.6086 221.264 72.8785 221.264C70.7506 221.264 69.3486 222.885 69.3486 225.232C69.3486 227.603 70.7307 229.154 72.9829 229.154ZM70.8351 224.516C70.8948 223.432 71.6803 222.492 72.8884 222.492C74.0418 222.492 74.7975 223.347 74.8025 224.516H70.8351ZM77.9085 231.864H79.395V227.812H79.4845C79.7529 228.299 80.2998 229.149 81.6919 229.149C83.5413 229.149 84.8836 227.668 84.8836 225.197C84.8836 222.721 83.5214 221.264 81.6769 221.264C80.26 221.264 79.748 222.129 79.4845 222.602H79.3602V221.364H77.9085V231.864ZM79.3651 225.182C79.3651 223.586 80.0612 222.527 81.3588 222.527C82.7061 222.527 83.3822 223.665 83.3822 225.182C83.3822 226.713 82.6862 227.881 81.3588 227.881C80.0811 227.881 79.3651 226.788 79.3651 225.182ZM89.8403 229.154C91.5058 229.154 92.684 228.334 93.0221 227.091L91.6151 226.837C91.3467 227.558 90.7004 227.926 89.8552 227.926C88.5825 227.926 87.7274 227.101 87.6876 225.629H93.1166V225.102C93.1166 222.343 91.466 221.264 89.7359 221.264C87.608 221.264 86.2061 222.885 86.2061 225.232C86.2061 227.603 87.5882 229.154 89.8403 229.154ZM87.6926 224.516C87.7522 223.432 88.5377 222.492 89.7458 222.492C90.8992 222.492 91.6549 223.347 91.6599 224.516H87.6926ZM94.0922 222.646H96.593V229H98.0447V222.646H100.535V221.364H94.0922V222.646ZM103.975 229.169C105.237 229.169 105.948 228.528 106.232 227.956H106.291V229H107.743V223.929C107.743 221.707 105.993 221.264 104.78 221.264C103.398 221.264 102.125 221.821 101.628 223.213L103.025 223.531C103.244 222.989 103.801 222.467 104.8 222.467C105.759 222.467 106.252 222.969 106.252 223.835V223.869C106.252 224.411 105.695 224.401 104.323 224.56C102.876 224.729 101.394 225.107 101.394 226.842C101.394 228.344 102.523 229.169 103.975 229.169ZM104.298 227.976C103.457 227.976 102.851 227.598 102.851 226.862C102.851 226.067 103.557 225.783 104.417 225.669C104.899 225.604 106.043 225.475 106.256 225.261V226.246C106.256 227.151 105.536 227.976 104.298 227.976ZM120.665 227.717H119.373V221.364H117.916V227.712H115.276V221.364H113.82V227.712H111.18V221.364H109.723V229H119.07V231.188H120.526L120.665 227.717ZM123.689 226.917V221.364H122.233V229H123.848L127.199 223.442V229H128.656V221.364H127.055L123.689 226.917ZM129.707 222.646H132.208V229H133.66V222.646H136.151V221.364H129.707V222.646ZM140.659 229.154C142.324 229.154 143.502 228.334 143.84 227.091L142.434 226.837C142.165 227.558 141.519 227.926 140.674 227.926C139.401 227.926 138.546 227.101 138.506 225.629H143.935V225.102C143.935 222.343 142.284 221.264 140.554 221.264C138.426 221.264 137.024 222.885 137.024 225.232C137.024 227.603 138.407 229.154 140.659 229.154ZM138.511 224.516C138.571 223.432 139.356 222.492 140.564 222.492C141.718 222.492 142.473 223.347 142.478 224.516H138.511ZM152.506 229.154C154.311 229.154 155.479 228.07 155.643 226.584H154.196C154.007 227.409 153.366 227.896 152.516 227.896C151.258 227.896 150.448 226.847 150.448 225.182C150.448 223.546 151.273 222.517 152.516 222.517C153.46 222.517 154.037 223.114 154.196 223.83H155.643C155.484 222.288 154.226 221.264 152.491 221.264C150.338 221.264 148.946 222.885 148.946 225.217C148.946 227.518 150.289 229.154 152.506 229.154ZM158.212 221.364H156.726V229H158.212V225.888H159.912C160.156 227.862 161.483 229.154 163.402 229.154C165.54 229.154 166.937 227.558 166.937 225.212C166.937 222.845 165.54 221.264 163.402 221.264C161.459 221.264 160.131 222.577 159.907 224.595H158.212V221.364ZM163.402 227.881C161.966 227.881 161.324 226.668 161.324 225.212C161.324 223.75 161.966 222.527 163.402 222.527C164.844 222.527 165.481 223.755 165.481 225.212C165.481 226.663 164.844 227.881 163.402 227.881ZM167.944 231.202H169.416V229H174.74V231.202H176.192V227.712H175.019V221.364H169.828L169.59 224.212C169.43 226.136 169.197 227.141 168.565 227.712H167.944V231.202ZM170.156 227.712C170.663 227.001 170.852 225.818 171.002 224.212L171.161 222.636H173.567V227.712H170.156ZM179.867 229.169C181.13 229.169 181.841 228.528 182.124 227.956H182.184V229H183.636V223.929C183.636 221.707 181.886 221.264 180.672 221.264C179.29 221.264 178.018 221.821 177.521 223.213L178.918 223.531C179.136 222.989 179.693 222.467 180.692 222.467C181.652 222.467 182.144 222.969 182.144 223.835V223.869C182.144 224.411 181.587 224.401 180.215 224.56C178.768 224.729 177.287 225.107 177.287 226.842C177.287 228.344 178.415 229.169 179.867 229.169ZM180.19 227.976C179.35 227.976 178.744 227.598 178.744 226.862C178.744 226.067 179.449 225.783 180.31 225.669C180.792 225.604 181.935 225.475 182.149 225.261V226.246C182.149 227.151 181.428 227.976 180.19 227.976Z"
        fill="#5D5FEF" />
    <path
        d="M75.8311 248H76.1721C77.6209 248 78.0385 246.875 78.1323 244.727L78.2346 242.392H80.638V248H81.6436V241.455H77.28L77.1607 244.352C77.0755 246.551 76.8539 247.062 76.0698 247.062H75.8311V248ZM84.0172 241.455H83.0115V248H84.0172V245.256H85.6962C85.8752 247.007 87.013 248.136 88.6365 248.136C90.4093 248.136 91.6025 246.79 91.6025 244.761C91.6025 242.716 90.4093 241.369 88.6365 241.369C86.9959 241.369 85.8496 242.524 85.6919 244.318H84.0172V241.455ZM88.6365 247.233C87.29 247.233 86.6763 246.074 86.6763 244.761C86.6763 243.449 87.29 242.273 88.6365 242.273C89.9831 242.273 90.5968 243.449 90.5968 244.761C90.5968 246.074 89.9831 247.233 88.6365 247.233ZM98.0968 239C97.7772 239.268 97.2999 239.268 96.6309 239.264C96.4135 239.264 96.1749 239.264 95.915 239.273C93.9206 239.324 92.932 240.841 92.932 243.756V244.455C92.932 246.875 94.1081 248.136 95.8638 248.136C97.6152 248.136 98.7786 246.866 98.7786 244.812C98.7786 242.75 97.5982 241.659 96.0684 241.659C95.1692 241.659 94.3297 242.034 93.8865 242.852H93.8013C93.9377 241.165 94.5684 240.261 95.932 240.21C97.1422 240.159 98.0115 240.193 98.6081 239.614L98.0968 239ZM95.8638 247.233C94.6706 247.233 93.9377 246.278 93.9377 244.812C93.959 243.381 94.6792 242.562 95.8468 242.562C97.0442 242.562 97.7729 243.381 97.7729 244.812C97.7729 246.287 97.0485 247.233 95.8638 247.233ZM102.976 248.136C104.749 248.136 105.942 246.79 105.942 244.761C105.942 242.716 104.749 241.369 102.976 241.369C101.203 241.369 100.01 242.716 100.01 244.761C100.01 246.79 101.203 248.136 102.976 248.136ZM102.976 247.233C101.629 247.233 101.016 246.074 101.016 244.761C101.016 243.449 101.629 242.273 102.976 242.273C104.323 242.273 104.936 243.449 104.936 244.761C104.936 246.074 104.323 247.233 102.976 247.233ZM108.483 246.517V241.455H107.477V248H108.653L111.79 242.938V248H112.795V241.455H111.636L108.483 246.517ZM110.971 239.273C110.971 239.716 110.733 240.108 110.136 240.108C109.54 240.108 109.318 239.716 109.318 239.273H108.381C108.381 240.193 109.062 240.841 110.136 240.841C111.227 240.841 111.909 240.193 111.909 239.273H110.971ZM120.177 242.307C121.2 242.315 121.809 243.253 121.941 244.233H119.512V245.17H121.95C121.843 246.168 121.213 247.173 120.177 247.182C119.41 247.173 118.694 246.509 118.694 245.767H117.705C117.705 247.071 118.745 248.119 120.177 248.119C121.967 248.119 122.972 246.598 122.972 244.864V244.625C122.972 242.891 121.967 241.369 120.177 241.369C118.899 241.369 117.705 242.418 117.705 243.551H118.694C118.694 242.874 119.495 242.315 120.177 242.307ZM123.925 248H124.266C125.715 248 126.132 246.875 126.226 244.727L126.328 242.392H128.732V248H129.737V241.455H125.374L125.254 244.352C125.169 246.551 124.948 247.062 124.164 247.062H123.925V248ZM134.327 248.136C135.656 248.136 136.628 247.472 136.935 246.483L135.963 246.21C135.708 246.892 135.115 247.233 134.327 247.233C133.146 247.233 132.333 246.47 132.286 245.068H137.037V244.642C137.037 242.205 135.588 241.369 134.225 241.369C132.452 241.369 131.276 242.767 131.276 244.778C131.276 246.79 132.435 248.136 134.327 248.136ZM132.286 244.199C132.354 243.18 133.074 242.273 134.225 242.273C135.316 242.273 136.014 243.091 136.014 244.199H132.286ZM142.146 246.636L139.896 241.455H138.567V248H139.573V242.899L141.737 248H142.556L144.72 242.993V248H145.726V241.455H144.431L142.146 246.636ZM150.311 248.136C151.641 248.136 152.612 247.472 152.919 246.483L151.948 246.21C151.692 246.892 151.1 247.233 150.311 247.233C149.131 247.233 148.317 246.47 148.27 245.068H153.021V244.642C153.021 242.205 151.573 241.369 150.209 241.369C148.436 241.369 147.26 242.767 147.26 244.778C147.26 246.79 148.419 248.136 150.311 248.136ZM148.27 244.199C148.338 243.18 149.058 242.273 150.209 242.273C151.3 242.273 151.999 243.091 151.999 244.199H148.27ZM155.557 241.455H154.551V248H155.557V245.205H158.693V248H159.699V241.455H158.693V244.267H155.557V241.455ZM160.645 242.392H162.81V248H163.816V242.392H165.963V241.455H160.645V242.392ZM74.4691 261.517V256.455H73.4634V263H74.6396L77.7759 257.938V263H78.7816V256.455H77.6225L74.4691 261.517ZM80.2145 261.33C80.2486 262.403 81.2756 263.136 82.669 263.136C84.1009 263.136 85.1406 262.369 85.1406 261.176C85.1406 260.358 84.6506 259.693 83.9134 259.642V259.574C84.5355 259.382 85.0043 258.93 85.0043 258.193C85.0043 257.158 84.1179 256.369 82.7372 256.369C81.3736 256.369 80.402 257.119 80.3679 258.176H81.4247C81.4545 257.635 82.0213 257.256 82.7884 257.256C83.5511 257.256 83.9815 257.643 83.9815 258.227C83.9815 258.773 83.6065 259.182 82.8054 259.182H81.6804V260.085H82.8054C83.6065 260.085 84.1179 260.524 84.1179 261.176C84.1179 261.922 83.4574 262.233 82.652 262.233C81.8636 262.233 81.3352 261.922 81.2884 261.33H80.2145ZM89.3487 263H89.6896C91.1385 263 91.5561 261.875 91.6499 259.727L91.7521 257.392H94.1555V263H95.1612V256.455H90.7976L90.6783 259.352C90.593 261.551 90.3714 262.062 89.5874 262.062H89.3487V263ZM99.7507 263.136C101.08 263.136 102.052 262.472 102.359 261.483L101.387 261.21C101.131 261.892 100.539 262.233 99.7507 262.233C98.5703 262.233 97.7564 261.47 97.7095 260.068H102.461V259.642C102.461 257.205 101.012 256.369 99.6484 256.369C97.8757 256.369 96.6996 257.767 96.6996 259.778C96.6996 261.79 97.8587 263.136 99.7507 263.136ZM97.7095 259.199C97.7777 258.18 98.4979 257.273 99.6484 257.273C100.739 257.273 101.438 258.091 101.438 259.199H97.7095ZM103.991 263H107.076C108.406 263 109.207 262.25 109.207 261.244C109.207 260.217 108.427 259.663 107.707 259.557C108.444 259.403 108.968 258.99 108.968 258.193C108.968 257.149 108.073 256.455 106.667 256.455H103.991V263ZM104.945 262.08V260.068H107.076C107.766 260.068 108.184 260.482 108.184 261.159C108.184 261.73 107.766 262.08 107.076 262.08H104.945ZM104.945 259.199V257.375H106.667C107.472 257.375 107.962 257.712 107.962 258.261C107.962 258.845 107.472 259.199 106.667 259.199H104.945ZM113.388 263.136C115.161 263.136 116.354 261.79 116.354 259.761C116.354 257.716 115.161 256.369 113.388 256.369C111.615 256.369 110.422 257.716 110.422 259.761C110.422 261.79 111.615 263.136 113.388 263.136ZM113.388 262.233C112.042 262.233 111.428 261.074 111.428 259.761C111.428 258.449 112.042 257.273 113.388 257.273C114.735 257.273 115.348 258.449 115.348 259.761C115.348 261.074 114.735 262.233 113.388 262.233ZM118.895 261.517V256.455H117.889V263H119.065L122.202 257.938V263H123.207V256.455H122.048L118.895 261.517ZM121.384 254.273C121.384 254.716 121.145 255.108 120.548 255.108C119.952 255.108 119.73 254.716 119.73 254.273H118.793C118.793 255.193 119.474 255.841 120.548 255.841C121.639 255.841 122.321 255.193 122.321 254.273H121.384ZM128.424 263H129.43V257.392H132.566V263H133.572V256.455H128.424V263ZM137.335 263.153C138.477 263.153 139.074 262.54 139.278 262.114H139.329V263H140.335V258.688C140.335 256.608 138.75 256.369 137.914 256.369C136.926 256.369 135.801 256.71 135.289 257.903L136.244 258.244C136.466 257.767 136.99 257.256 137.949 257.256C138.873 257.256 139.329 257.746 139.329 258.585V258.619C139.329 259.105 138.835 259.062 137.642 259.216C136.427 259.374 135.102 259.642 135.102 261.142C135.102 262.42 136.091 263.153 137.335 263.153ZM137.488 262.25C136.687 262.25 136.108 261.892 136.108 261.193C136.108 260.426 136.806 260.188 137.591 260.085C138.017 260.034 139.159 259.915 139.329 259.71V260.631C139.329 261.449 138.681 262.25 137.488 262.25ZM143.176 256.455H142.17V263H143.176V260.205H146.312V263H147.318V256.455H146.312V259.267H143.176V256.455ZM151.899 263.136C153.229 263.136 154.2 262.472 154.507 261.483L153.536 261.21C153.28 261.892 152.688 262.233 151.899 262.233C150.719 262.233 149.905 261.47 149.858 260.068H154.609V259.642C154.609 257.205 153.161 256.369 151.797 256.369C150.024 256.369 148.848 257.767 148.848 259.778C148.848 261.79 150.007 263.136 151.899 263.136ZM149.858 259.199C149.926 258.18 150.646 257.273 151.797 257.273C152.888 257.273 153.587 258.091 153.587 259.199H149.858ZM155.56 263H155.901C157.349 263 157.767 261.875 157.861 259.727L157.963 257.392H160.366V263H161.372V256.455H157.009L156.889 259.352C156.804 261.551 156.582 262.062 155.798 262.062H155.56V263ZM164.223 261.517V256.455H163.217V263H164.393L167.53 257.938V263H168.536V256.455H167.376L164.223 261.517Z"
        fill="#6B7280" />
    <path d="M128.778 183V187.444" stroke="black" stroke-width="2" stroke-linecap="round" />
    <path d="M131 185.222L126.556 185.222" stroke="black" stroke-width="2" stroke-linecap="round" />
    <path
        d="M122.389 185.222H115C112.791 185.222 111 187.013 111 189.222V198.278M128.778 191.611V199C128.778 201.209 126.987 203 124.778 203H115C112.791 203 111 201.209 111 199V198.278M111 198.278L114.838 194.44C116.4 192.877 118.933 192.877 120.495 194.44C121.896 195.841 123.566 197.511 124.889 198.833"
        stroke="black" stroke-width="2" stroke-linecap="round" />
    <path
        d="M128.778 196.611L128.273 196.106C126.711 194.544 124.178 194.544 122.616 196.106L122.389 196.333"
        stroke="black" stroke-width="2" stroke-linecap="round" />
</svg>